<svg width="512" height="512" viewBox="0 0 512 512" fill="none" xmlns="http://www.w3.org/2000/svg">
<path fill-rule="evenodd" clip-rule="evenodd" d="M7.761 1.85264C5.499 3.06564 3.228 5.41364 2.011 7.79864C0.0789999 11.5866 0 13.6266 0 59.8206C0 106.034 0.0780001 108.054 2.013 111.847C3.328 114.425 5.435 116.512 8.085 117.864C11.951 119.837 13.47 119.92 40.321 119.628C66.684 119.341 68.8 119.183 73.149 117.172C79.092 114.425 85.604 107.913 88.351 101.97C90.429 97.4746 90.5 96.0796 90.5 59.8206C90.5 23.5616 90.429 22.1666 88.351 17.6716C85.604 11.7286 79.092 5.21664 73.149 2.46964C68.781 0.450641 66.776 0.306641 40 0.0846408C13.137 -0.138359 11.285 -0.0373591 7.761 1.85264ZM121 59.8206V89.8206H183.451C225.314 89.8206 247.649 90.1866 251.201 90.9296C263.923 93.5906 276.279 103.417 282.205 115.583L285.5 122.347L291.5 121.51C299.767 120.355 326.665 120.145 337.149 121.152L345.799 121.984L344.496 115.152C340.513 94.2706 330.452 75.4826 315.199 60.4426C298.691 44.1656 281.365 35.2556 258.619 31.3466C251.285 30.0866 238.528 29.8206 185.369 29.8206H121V59.8206ZM296 151.352C241.05 159.016 194.605 192.467 169.692 242.321C165.646 250.419 159 267.561 159 269.901C159 270.457 221.453 270.821 317 270.821C412.547 270.821 475 270.457 475 269.901C475 267.561 468.354 250.419 464.308 242.321C432.598 178.866 364.115 141.852 296 151.352ZM130.45 302.228C120.753 306.451 118.301 318.964 125.773 326.092C129.857 329.988 133.12 330.821 144.315 330.823L154.5 330.826L157.477 336.573C161.277 343.911 168.91 351.544 176.248 355.344L181.995 358.321L181.998 383.611C182 406.981 182.153 409.2 184.013 412.847C186.277 417.284 192.038 420.821 197 420.821C201.962 420.821 207.723 417.284 209.987 412.847C211.839 409.216 212 406.981 212 384.861V360.821H227H242V369.861C242 376.947 242.435 379.753 244.013 382.847C246.277 387.284 252.038 390.821 257 390.821C261.962 390.821 267.723 387.284 269.987 382.847C271.565 379.753 272 376.947 272 369.861V360.821H287H302V384.861C302 406.981 302.161 409.216 304.013 412.847C306.277 417.284 312.038 420.821 317 420.821C321.962 420.821 327.723 417.284 329.987 412.847C331.839 409.216 332 406.981 332 384.861V360.821H347H362V369.861C362 376.947 362.435 379.753 364.013 382.847C366.277 387.284 372.038 390.821 377 390.821C381.962 390.821 387.723 387.284 389.987 382.847C391.565 379.753 392 376.947 392 369.861V360.821H407H422V384.861C422 406.981 422.161 409.216 424.013 412.847C426.277 417.284 432.038 420.821 437 420.821C441.962 420.821 447.723 417.284 449.987 412.847C451.847 409.2 452 406.981 452.002 383.611L452.005 358.321L457.752 355.344C465.09 351.544 472.723 343.911 476.523 336.573L479.5 330.826L489.79 330.823C498.126 330.821 500.829 330.439 504.026 328.808C508.463 326.544 512 320.783 512 315.821C512 310.859 508.463 305.098 504.026 302.834C500.113 300.838 498.554 300.821 316.79 300.86C166.658 300.892 132.948 301.14 130.45 302.228ZM249.761 422.883C247.476 424.09 245.24 426.39 244.011 428.799C242.115 432.517 242 434.653 242 466.321C242 498.002 242.114 500.124 244.013 503.847C246.277 508.284 252.038 511.821 257 511.821C261.962 511.821 267.723 508.284 269.987 503.847C271.886 500.124 272 498.002 272 466.321C272 434.64 271.886 432.518 269.987 428.795C266.297 421.562 257.264 418.922 249.761 422.883ZM369.761 422.883C367.476 424.09 365.24 426.39 364.011 428.799C362.115 432.517 362 434.653 362 466.321C362 498.002 362.114 500.124 364.013 503.847C366.277 508.284 372.038 511.821 377 511.821C381.962 511.821 387.723 508.284 389.987 503.847C391.886 500.124 392 498.002 392 466.321C392 434.64 391.886 432.518 389.987 428.795C386.297 421.562 377.264 418.922 369.761 422.883ZM189.761 452.883C182.94 456.485 182 459.928 182 481.321C182 497.969 182.209 500.311 184.013 503.847C186.277 508.284 192.038 511.821 197 511.821C201.962 511.821 207.723 508.284 209.987 503.847C211.791 500.311 212 497.969 212 481.321C212 464.673 211.791 462.331 209.987 458.795C206.297 451.562 197.264 448.922 189.761 452.883ZM309.761 452.883C302.94 456.485 302 459.928 302 481.321C302 497.969 302.209 500.311 304.013 503.847C306.277 508.284 312.038 511.821 317 511.821C321.962 511.821 327.723 508.284 329.987 503.847C331.791 500.311 332 497.969 332 481.321C332 464.673 331.791 462.331 329.987 458.795C326.297 451.562 317.264 448.922 309.761 452.883ZM429.761 452.883C422.94 456.485 422 459.928 422 481.321C422 497.969 422.209 500.311 424.013 503.847C426.277 508.284 432.038 511.821 437 511.821C441.962 511.821 447.723 508.284 449.987 503.847C451.791 500.311 452 497.969 452 481.321C452 464.673 451.791 462.331 449.987 458.795C446.297 451.562 437.264 448.922 429.761 452.883Z" fill="black"/>
</svg>
