<?xml version="1.0" encoding="UTF-8"?>
<svg version="1.1" viewBox="0 0 2048 2048" width="512" height="512" xmlns="http://www.w3.org/2000/svg">
<path transform="translate(1211,843)" d="m0 0h27l17 3 15 5 16 8 13 9 12 11 7 7 11 16 8 16 5 15 3 17 1 21v153h667l9 2 11 6 7 7 6 10 2 4v869l-3 3-6 9-9 8-11 6h-1990l-11-6-10-9-6-10-2-4v-867l8-13 7-7 13-7 5-1h147v-126l3-10 6-10 9-8 9-5 11-2h122l14 2 10 5 8 7 6 9 3 9 1 10-2 12-6 11-9 9-8 4-6 2-7 1h-83v80h200v-125l4-13 7-10 8-7 8-4 4-1h19l10 4 6 4 8 8 6 12 1 4 1 127 199 1v-80h-85l-9-2-9-5-8-7-7-12-2-7v-14l4-12 6-8 9-8 8-4 11-2h122l13 2 12 6 5 4 7 10 4 11v128h441l-1-168-4-11-6-9-8-6-9-4-4-1h-14l-10 3-9 6-7 8-4 8-2 10-1 47-2 10-7 13-9 8-12 5-5 1h-12l-10-3-10-6-7-8-6-12-1-5v-59l4-21 8-20 8-14 11-14 10-10 15-11 10-6 15-6 13-4zm-1130 362-1 14v106h843v-120zm923 0v120h441v-120zm522 0v120h441v-120zm-1294 200-151 1-1 38v523l5 1h835l3-1v-561l-181-1zm819 0-47 1v562h438l3-1v-561l-39-1zm509 0-34 1v561l4 1h435l2-1v-561l-140-1z"/>
<path transform="translate(27)" d="m0 0h1030v2l6 2 8 6 8 9 4 8 1 4 1 70-1 107-4 12-7 9-9 7-11 4-9 1h-200v79l47 1 11 4 6 4 5 4 7 10 80 160 4 11v16l-5 12-6 8-7 6-8 4-8 2h-335l-10-3-11-8-8-11-4-11v-14l4-12 80-160 8-11 8-6 11-5h49v-80h-440v61l-1 19h48l11 4 6 4 5 5 7 9 80 160 4 12v14l-4 11-8 11-8 6-10 4-4 1h-335l-10-3-10-7-7-8-5-11-1-3v-16l5-13 80-160 7-9 9-7 10-4 20-1 29 1v-80h-204l-12-3-10-6-8-9-6-11v-184l8-14 9-8zm54 80-1 11v69h923v-80zm144 322-37 74-2 5h189l-2-6-19-39-17-34zm522 0-11 22-9 19-10 19-8 16v3h188l-3-9-35-70z"/>
<path transform="translate(1191)" d="m0 0h830v2l6 2 8 6 9 10 4 8v506l-3 5-7 10-8 7-8 4-8 2h-816l-10-3-11-7-7-9-4-8-2-9v-492l3-10 6-10 7-7 9-5h2zm55 80-1 5v396l318 1 2-1 1-298v-102l-1-1zm401 0v401h320v-401z"/>
<path transform="translate(205,1485)" d="m0 0h539l67 1 9 3 9 6 5 5 6 9 3 8 1 119v85l-1 134-4 11-7 10-9 7-12 4-15 1h-594l-14-2-10-5-10-9-6-11-2-10v-331l3-10 6-10 7-7 11-6 4-1zm37 81-1 1v240h521v-241z"/>
<path transform="translate(1520,642)" d="m0 0h493l9 2 11 6 9 10 6 12v25h-2l-4 8-6 7-10 7-9 3-5 1h-44v87l10 3 14 8 14 10 15 15 11 16 9 19 5 15 2 5v47l-2 2-5 16-6 13-8 14-9 11-12 12-14 10-17 9-15 5-13 3-8 1h-24l-17-3-18-6-17-9-12-9-12-11-9-11-9-14-7-15-5-17-2-12v-26l3-17 6-18 9-17 9-12 9-10 11-10 14-9 14-7 5-1v-87l-239 1v86l10 4 13 7 11 8 10 9 10 11 10 15 8 17 4 13 3 16v27l-4 20-6 16-9 17-9 11-9 10-8 7-13 9-16 8-14 5-14 3-9 1h-22l-18-3-19-7-15-8-11-8-12-11-9-10-9-14-7-14-6-18-3-21v-14l3-19 5-17 8-17 9-13 12-14 12-10 11-7 16-8 4-1v-86l-45-1-10-3-10-6-8-9-6-13-1-13 3-12 6-10 7-7 11-6zm78 242-11 4-9 7-6 8-4 8-1 5v16l4 10 4 6 5 5 6 5 10 4 4 1h12l10-3 10-6 7-7 5-10 2-8v-11l-4-13-8-11-9-6-11-4zm322 0-11 4-9 6v2h-2l-6 9-4 13v12l4 12 7 9 8 7 10 4 4 1h12l13-4 8-6 5-5 5-8 3-9v-16l-5-12-6-8-9-7-11-4z"/>
<path transform="translate(1319,1626)" d="m0 0h12l10 3 10 6 7 7 6 12 2 12v41l-2 12-5 10-9 10-12 6-7 2h-12l-13-4-10-8-6-8-4-9-2-11v-41l2-11 4-9 6-8 7-6 11-5z"/>
<path transform="translate(1764,200)" d="m0 0 13 1 10 4 10 8 6 9 4 11 1 14v26l-1 16-4 10-6 9-8 7-8 4-9 2h-12l-10-3-9-6-7-7-6-12-2-10v-45l3-13 6-10 7-7 11-6z"/>
<path transform="translate(1641,1626)" d="m0 0h10l9 2 11 6 9 9 5 10 2 8v50l-2 9-6 11-4 5-10 7-13 4h-12l-10-3-9-6-5-5-4-5-5-11-1-4v-53l4-12 8-11 10-7 7-3z"/>
<path transform="translate(1443,200)" d="m0 0 16 2 10 5 5 4 6 8 4 8 2 8v52l-3 10-7 11-8 7-12 5-5 1h-13l-11-4-8-6-7-7-6-13-1-5v-51l4-12 6-9 7-7 10-5z"/>
<path transform="translate(2047,896)" d="m0 0"/>
<path transform="translate(26,2047)" d="m0 0 2 1z"/>
<path transform="translate(0,2021)" d="m0 0"/>
<path transform="translate(2047,669)" d="m0 0"/>
<path transform="translate(2047,535)" d="m0 0"/>
<path transform="translate(1058)" d="m0 0"/>
</svg>
