<?xml version="1.0" encoding="UTF-8"?>
<svg version="1.1" viewBox="0 0 2048 2048" width="512" height="512" xmlns="http://www.w3.org/2000/svg">
<path transform="translate(263)" d="m0 0h228v2l9 6 8 9 4 11 1 42-1 513 16 4 16 6 17 8 11 7 16 12 10 9 13 14 13 19 6 10 10 23 6 23 2 16 1 13v30l16-9 19-8 17-5 14-3 1-448 4-13 7-9 5-4 8-4 4-1 13-1h60l110 1 10 3 8 6 6 7 4 9 1 6v449l9 1 21 5 24 10 19 12 11 9 12 11 11 14 7 10 10 19 6 17 4 15 2 16 1 22v348h34l12 3 8 4 7 7 5 10 1 3v22l-64 512-3 20 27-1h74l-1-747v-154l1-193 3-11 5-8 9-8 9-4 7-1h206v-272h-35l-12-3-8-5-5-4-6-10-2-8v-180l3-10 6-9 9-7 8-3 7-1h341l13 2 9 5 3 2v2h2l7 11 2 7v180l-2 8-4 8-6 7-12 6-13 2h-31v273l15-1h186l11 1 10 4 10 9 5 9 2 8v1096l35-1 38 1 9 3 8 5 8 9 4 8v158l-3 3-6 8-7 6-6 3h-2v2h-2e3l-13-7-7-7-4-6v-2h-2v-159h2l1-5 7-10 11-7 6-2 14-1h60v-1048l1-53 3-24 6-21 6-15 8-16 12-18 8-10 18-18 14-10 11-7 23-11 26-8 1-550 3-12 6-10 7-6zm45 69v67h135v-67zm0 136v375h133l2-1v-374zm1135 68-9 1v101h271l1-1v-100l-1-1zm-657 69v67h100l1-2v-65zm716 102v272l5 1h126l4-1 1-40v-232zm-716 34-1 272h102v-272zm-521 171-19 3-16 6-14 8-11 9-5 5-10 11-9 16-6 16-3 14-1 13 237 1 12 2 10 5 8 9 4 9 1 6v961l-3 12-7 10-9 6-13 3-240 1v68h408l-1-14-35-281-30-239v-19l5-12 6-7 11-6 10-2 35-1v-235l-1-286-2-14-6-18-9-16-8-10-11-11-13-9-17-8-13-4-16-2zm1e3 136-2 2v1056h613l1-8v-1049l-1-1zm-1092 34-2 1v886h204v-886l-9-1zm573 0-22 1-17 4-16 8-6 4-8 6v2l-4 2-10 13-8 15-4 13-2 13v21l112 1 27 3 21 6 15 6 19 10 14 10 15 13 11 12 10 13 10 18 7 15 7 23 3 21 1 11 1 179h101v-365l-3-15-5-13-6-11-7-9-10-10-14-9-13-6-17-4-169-1zm-97 171v272h203l1-7v-161l-2-26-5-16-8-16-8-11-8-9-13-10-15-8-15-5-9-2-14-1zm-63 341-1 2 14 113 45 360 4 33 1 3 5 1h369l5-35 59-472v-5zm-517 581v67h1910v-67z"/>
<path transform="translate(1326,887)" d="m0 0h486l11 3 9 6 7 8 4 11 1 7v573l-1 13-4 11-9 10-7 4-6 2-7 1h-483l-11-3-8-6-6-7-4-8-2-14v-576l3-14 7-10 9-7zm40 69v511h408v-511z"/>
<path transform="translate(650,1366)" d="m0 0h10l10 3 8 6 6 7 4 8 5 22 18 93 23 119 8 40 8 20 7 12 8 10 1 3h2v2l4 2 14 11 21 10 17 4 11 1h13l21-4 15-6 11-6 11-8 13-13 10-15 7-17 12-42 6-12 7-7 7-4 7-2h11l10 3 9 6 7 9 4 11v9l-3 15-9 33-8 21-10 19-8 12-11 13-7 8-10 9-14 10-15 9-23 10-22 6-22 3h-28l-19-2-26-7-23-10-16-10-13-10-16-15-11-14-7-10-12-23-5-14-6-21-14-71-16-83-19-98-2-10v-19l6-12 5-5 5-4 8-4z"/>
<path transform="translate(2026,2047)" d="m0 0 2 1z"/>
<path transform="translate(22,2047)" d="m0 0 2 1z"/>
<path transform="translate(2047,1865)" d="m0 0"/>
<path transform="translate(259)" d="m0 0"/>
</svg>
