<?xml version="1.0" encoding="UTF-8"?>
<svg version="1.1" viewBox="0 0 2048 2048" width="512" height="512" xmlns="http://www.w3.org/2000/svg">
<path transform="translate(1622)" d="m0 0h51l10 4 11 8 6 8 4 7 3 14v1024l-3 17-8 13-8 7-11 5-13 3h-5l43 645 5 74v29l-3 23-4 17-6 18-7 16-9 16-11 16-12 14-3 4h-2v2l-8 7-10 9-15 11-15 9-15 8-20 8-24 7-23 5h-61l-1-2-27-6-20-7-16-8-21-11-17-13-10-8-10-9-9-11-9-10-7-10-13-23-8-17-7-23-4-23-1-10v-33l15-223 15-225 17-256 1-10h-89l-16-3-9-5-10-9-8-16-1-8v-14l14-170 13-154 12-144 12-145 5-58 5-39 6-29 6-22 10-29 14-32 9-17 14-24 10-14 11-16 8-9 8-10 9-10 30-30 11-9 15-12 23-16 20-12 19-11 20-9 19-8 33-11 33-8 37-6zm-7 89-26 5-28 8-19 7-24 11-19 10-11 7-17 12-16 12-16 15-8 7-3 3v2l-3 1-7 8-6 7v2h-2l-9 12-10 14-13 21-13 25-11 28-8 26-6 27-4 33-7 85-5 57-7 86-30 360-3 33v10l10 1h325l1-1v-934zm-201 1021-2 19-7 107-15 225-6 87-7 108-6 90-6 89v10l3 24 7 21 9 16 10 13 11 11 16 12 22 11 20 6 13 2 21 1 25-3 25-8 22-12 13-11 8-7 10-12 9-15 6-14 5-22v-35l-16-239-31-465-1-9z"/>
<path transform="translate(371)" d="m0 0h28v2l12 7 7 7 6 10 3 12 1 437 2 25 5 24 6 19 11 25 10 17 10 13 12 14 7 8 10 9 10 8 13 10 21 12 16 7 16 6 25 6 15 2 14 1h18l21-2 20-4 18-5 20-8 21-11 12-8 13-11 10-8 10-9 13-16 8-10 11-18 11-23 7-21 4-17 3-21 1-25 1-426 3-12 7-11 5-5 10-7 5-1 1-2h27l-1 2 10 5 9 8 7 11 3 12v439l-3 36-6 29-6 21-12 31-12 22-9 15-21 28-9 10-13 13-3 4h-2v2l-11 9-18 14-17 11-21 12v16l14 228 44 703 9 141v42l-4 24-7 25-9 21-9 17-8 12-11 14-12 13-12 11-16 12-13 8-19 10-21 8-28 7-9 2h-51l-16-4-23-6-20-8-21-11-17-12-13-11-6-5-7-8-7-7-10-13-11-17-8-16-6-14-6-19-5-24-2-22v-15l5-81 7-114 17-270 32-512 7-113v-11l-16-10-18-11-14-11-16-13-7-6-7-8-13-13-13-17-13-18-10-18-11-21-11-29-6-21-5-25-3-32-1-430 1-14 3-12 9-14 13-9 5-1zm317 763-22 3-12 1h-29l-21-2-14-1-3 43-7 108-6 100-4 64-7 111-7 110-6 100-16 256-7 111-4 65v21l2 15 5 18 9 19 10 14 9 10 11 9 11 7 16 8 21 6 20 2 17-1 16-3 18-6 17-9 14-11 6-5 8-10 9-13 8-17 5-18 1-6 1-26-16-257-17-271-17-274-17-270z"/>
<path transform="translate(543)" d="m0 0h27l-1 2 8 4 9 7 7 10 4 12 1 6v342l-3 16-6 11-7 7-10 6-15 4-11-1-12-4-10-8-6-8-4-8-2-9-1-10v-335l3-16 4-8 8-10 11-7z" fill="#020202"/>
<path transform="translate(715)" d="m0 0h25v2l11 6 9 9 6 11 2 10 1 49v128l-1 173-3 12-5 9-6 7-11 7-14 4h-8l-12-3-11-7-7-7-5-8-4-15-1-96v-161l1-90 4-16 8-11 7-6z"/>
<path transform="translate(608,2047)" d="m0 0 4 1z"/>
<path transform="translate(1675)" d="m0 0 4 1z"/>
<path transform="translate(711)" d="m0 0"/>
</svg>
