<?xml version="1.0" encoding="UTF-8"?>
<svg version="1.1" viewBox="0 0 2048 2048" width="512" height="512" xmlns="http://www.w3.org/2000/svg">
<path transform="translate(463,16)" d="m0 0h1266l23 1 24 3 27 8 16 8 17 9 11 9 13 11 8 8 11 14 7 11 10 18 1 2 56 1 19 3 16 6 15 8 13 11 9 9 7 10 6 10 6 15 2 10h2v43l-2 1-6 18-8 15-7 9-11 12-14 10-16 8-16 5-15 2-14 1h-27v1569l-2 11-4 8-7 8-6 4-10 3-9 1h-235v66l-2 13-7 12h-2v2l-10 6-14 3h-1369l-11-3-8-6-7-8-4-10-1-7-1-1672h-83l-26-1-16-2-15-5-14-7-12-9-10-9-11-14-9-17-7-21v-37l8-23 9-16 8-10 7-8 16-12 15-8 16-5 16-2 152-1 5-5 9-11 7-9h2v-2l8-7 12-12 16-12 19-12 19-10 20-8 22-7 28-5 13-1zm146 69-178 1-17 2-21 5-16 6-16 8-16 10-11 9-12 11-10 11-8 11-8 12-11 23-6 18-4 19-1 12-1 1169 1 4h1295l1-1262 3-13 7-11 11-23 9-16 3-4v-2zm1123 1-14 2-18 6-15 8-9 7-10 9v1h149l-2-4-14-11-10-6-12-6-18-5-10-1zm-1632 102-12 3-8 6-6 7-4 9-1 12 3 11 6 9 8 6 8 3 5 1h105l4-36 6-28v-3zm1539 0v67h310l11-3 9-6 6-8 4-13-1-11-4-10-5-7-7-5-9-3-5-1zm2 136-2 1v1535h201l2-1v-1534zm-1367 1161-1 129 1 7h1295v-136zm0 205-1 272h1296v-272z"/>
</svg>
