<?xml version="1.0" encoding="UTF-8"?>
<svg version="1.1" viewBox="0 0 2048 2048" width="512" height="512" xmlns="http://www.w3.org/2000/svg">
<path transform="translate(641,31)" d="m0 0h1022l21 2 15 4 16 8 14 10 8 8 11 15 8 18 3 12 1 8 1 44v42l-1 349-4 11-7 8-10 5-5 1h-13l-10-3-10-9-4-8-2-12-1-423-4-11-6-7-8-4-12-2h-1026l-11 2-8 5-5 6-4 10-1 13-1 538h574l11 1 9 4 8 7 6 12v18l-6 12-8 7-7 3-6 1-580 1v31l2 12 5 9 8 6 10 3 517 1 14 2 9 6 6 7 4 9v18l-6 12-8 7-7 3-6 1h-68l-1 127h33l12 2 9 6 6 7 4 9v18l-6 12-8 7-7 3-5 1h-581l-1 63h255l13 2 8 4 7 7 4 8 1 4v17l-6 12-8 7-7 3-5 1h-261l-1 807-4 11-7 8-10 5-5 1h-13l-9-3-6-4-6-7-4-10-1-8v-800h-382l-1 807-4 11-7 8-10 5-5 1h-13l-9-3-6-4-6-7-4-10-1-8v-962l2-10 4-8 5-5 9-6 11-2h97v-63h-72l-15-4-10-5-10-8-9-10-6-10-4-11-2-17v-130l2-13 5-13 7-11 12-12 10-6 12-5 15-2h65v-33l2-10 4-8 7-7 7-4 12-2h255l11 1 9 4 8 7 5 9 1 4v359h543v-127h-392l-19-3-13-5-10-5-11-8-9-8-10-13-8-14-5-15-2-11-1-12v-646l2-17 5-16 8-16 9-12 11-11 14-9 13-6 15-4zm-416 641-1 23v296l189 1 2-1v-319zm-128 64-1 3v124h63v-127zm0 320-1 3v60l380 1 3-1v-63z"/>
<path transform="translate(1367,639)" d="m0 0h480l19 2 16 5 15 8 12 9 13 13 10 15 7 16 4 16 1 9v12l-2 16-9 54-7 44-13 78-7 43-2 11 80 1 12 2 8 4 7 7 4 8 1 4v976l-4 10-7 8-10 5-5 1h-13l-9-3-6-4-6-7-4-10-1-8v-800h-79l-1 9-19 115-14 86-5 25-5 22-3 29-2 24-5 19-7 17-11 18-12 14-11 10-13 9-17 9-18 6-14 3-10 1h-328l-1 127h157l25 2 17 4 15 6 18 10 16 13 8 8 10 13 9 15 6 14 5 15 18 8 13 9 12 11 11 15 8 18 4 18v27l-3 15-5 14-9 15-11 13-11 9-16 9-15 5-15 3h-24l-18-4-12-5-11-6-9-7-8-7-10-13-7-12-6-17-2-10-1-10v-9l2-17 5-16 8-16 9-12 11-11 14-9 9-5-6-11-9-10-11-8-12-5-8-2-9-1h-516l-15 2-12 5-11 7-9 9-8 13 3 3 11 6 13 10 7 7 9 12 8 16 4 13 2 10v27l-3 15-5 14-9 15-11 13-11 9-16 9-15 5-15 3h-24l-18-4-12-5-11-6-9-7-8-7-10-13-8-14-5-15-3-19v-10l2-17 5-16 8-16 9-12 11-11 14-9 13-6 5-2 7-21 10-19 12-16 13-13h2v-2l18-12 16-8 16-5 17-3 13-1h161v-127h-297l-14-2-15-5-14-7-10-8-8-7-10-13-8-14-5-15-3-18v-23l10-64 9-55 10-64 10-60 6-23 9-20 9-15 12-16h2l2-4 8-8 11-9 15-10 17-9 21-7 14-3 21-2h221l5-32 26-156 24-143 12-71 4-16 8-17 10-13 9-9 13-9 14-7 13-4 12-2zm-4 62-9 2-10 7-6 8-3 8-4 21-7 41-7 44-13 78-7 44-13 78-9 55-11 68-12 71-7 44-13 78-7 43-9 54-4 11-6 8-6 4-12 3-294 1-11 2-8 5-6 7-4 12v14l4 10 6 7 10 5 5 1h814l16-4 11-6 11-9 9-12 5-11 3-12 2-35 5-42 8-50 17-102 7-44 14-85 18-110 13-78 15-92 16-98 1-11-2-13-5-8-7-6-7-4-10-2zm530 355-1 1-7 45-3 17h69v-63zm-903 128-18 2-16 5-14 8-14 12-10 13-8 17-4 15-8 46-11 65-7 39 1 3 16-1 261-1 7-40 21-125 7-42 2-16zm259 416-1 23v104l60 1 3-1v-127zm379 288-11 3-8 6-5 6-3 9v16l4 10 6 7 10 5 4 1h13l12-4 7-6 5-10 1-4v-15l-5-12-9-8-8-3zm-703 0-12 3-8 6-5 6-3 9v16l4 10 6 7 10 5 4 1h13l12-4 7-6 5-10 1-4v-15l-5-12-9-8-8-3z"/>
<path transform="translate(252,224)" d="m0 0h10l10 3 9 8 6 12 1 5v9l-3 9-7 12-10 14-7 14-3 14v9l4 15 11 21 11 17 9 16 7 16 4 15 2 13v13l-3 19-5 16-8 18-10 17-5 6-11 5-5 1h-12l-9-4-7-6-7-14v-17l5-13 6-13 3-11v-17l-4-12-8-15-13-21-13-26-6-20-2-12v-21l4-20 6-17 10-20 9-14 9-12 9-8 7-3z"/>
<path transform="translate(856,160)" d="m0 0h16l12 6 8 9 4 10v14l-6 12-9 10-155 155-9 6-7 2h-13l-10-4-8-7-5-8-2-5-1-11 3-10 6-9 149-149 5-6 8-7 9-6z"/>
<path transform="translate(830,383)" d="m0 0 10 1 12 6 8 9 4 9v16l-6 11-9 10-123 123-10 6-6 2h-12l-9-3-9-7-6-9-2-5-1-9 2-10 6-10 114-114 1-2h2l2-4h2l2-4h2l2-4 10-8 8-3z"/>
<path transform="translate(386,323)" d="m0 0h15l12 6 7 7 5 10 1 4v10l-3 9-8 11-6 7-3 6v12l7 19 9 21 6 17 3 15v17l-4 15-7 14-10 12-12 7-7 2h-12l-11-4-8-7-6-11-1-4v-12l4-9 5-7-1-10-8-22-8-20-5-18-2-20 2-17 5-16 8-15 11-13 6-7 9-6z"/>
<path transform="translate(990,223)" d="m0 0 13 2 10 6 7 8 4 9v15l-6 12-9 10-59 59-9 6-7 2h-13l-10-4-9-8-6-12-1-10 2-9 5-9 4-5h2v-2l8-7 37-37 5-6 4-4h2l2-4 11-8 7-3z"/>
</svg>
