<svg width="100" height="65" viewBox="0 0 100 65" fill="none" xmlns="http://www.w3.org/2000/svg">
<path fill-rule="evenodd" clip-rule="evenodd" d="M47.4044 0.0270007C37.1367 0.514558 27.2235 3.6968 18.8112 9.2056L17.9515 9.76864H9.05582C4.16319 9.76864 0.160686 9.7847 0.161351 9.80429C0.162017 9.82387 1.94442 11.7863 4.12231 14.1651L8.08213 18.4903L7.31739 19.2745C6.22592 20.3938 5.35304 21.4712 4.33296 22.9581C0.333361 28.788 -0.976837 36.1004 0.734984 43.0393C2.23806 49.1319 5.99797 54.4306 11.2713 57.8878C12.2837 58.5515 12.8843 58.891 14.0625 59.4654C16.755 60.7781 19.46 61.5404 22.5941 61.8698C23.3835 61.9527 26.5517 61.9533 27.2995 61.8707C30.5782 61.5081 33.1642 60.7715 35.9261 59.4136C38.0434 58.3726 39.807 57.1942 41.5024 55.6876C41.8343 55.3927 41.9079 55.3467 41.959 55.4021C47.7762 61.7133 49.9843 64.0948 50.0188 64.0948C50.0424 64.0948 51.8405 62.1485 54.0146 59.7697L57.9675 55.4446L58.3776 55.8156C61.8794 58.983 66.3113 61.11 71.0158 61.8813C72.4911 62.1231 73.1555 62.17 75.0903 62.1687C77.0164 62.1674 77.5056 62.132 79.0591 61.8819C86.686 60.6537 93.3342 55.9204 97.0224 49.0925C100.257 43.104 100.891 35.922 98.7546 29.4531C97.8113 26.5964 96.3774 23.961 94.4874 21.6107C93.8682 20.8408 92.736 19.5956 92.2344 19.133L91.8143 18.7457L92.0178 18.5229C92.1298 18.4004 93.9499 16.3966 96.0625 14.0701L99.9037 9.83993L90.8003 9.81617L81.6969 9.7924L80.984 9.31354C76.1402 6.06025 70.3493 3.44366 64.5863 1.90432C60.8546 0.907534 57.4461 0.351486 53.3456 0.0706342C52.3601 0.00309481 48.5037 -0.0251866 47.4044 0.0270007ZM54.5101 8.33777C59.378 8.78131 63.609 9.85087 67.7854 11.6938L68.5129 12.0148L67.5902 12.3826C64.8316 13.4819 62.2646 15.0139 59.9984 16.9133C54.1437 21.8204 50.5686 28.8545 50.0535 36.4802C50.0474 36.5717 50.015 36.2023 49.9817 35.6594C49.7615 32.0764 48.9394 28.9456 47.4247 25.9219C44.4869 20.0571 39.0549 15.2462 32.1594 12.4021C31.7868 12.2484 31.4821 12.1086 31.4821 12.0914C31.4821 12.0539 32.6736 11.5249 33.4912 11.1993C37.6591 9.53964 41.8925 8.59376 46.4776 8.2976C47.3972 8.23824 53.767 8.27008 54.5101 8.33777ZM27.2044 20.3616C32.1096 21.0201 36.3411 23.6488 39.0732 27.7348C40.5265 29.9082 41.4326 32.3671 41.7792 35.0781C41.8985 36.0107 41.8985 38.0903 41.7792 39.023C41.2799 42.9279 39.5833 46.378 36.8449 49.0568C34.1565 51.6868 30.8419 53.2778 27.0381 53.7642C26.1054 53.8834 24.0258 53.8834 23.0931 53.7642C19.2893 53.2778 15.9747 51.6868 13.2863 49.0568C10.5479 46.378 8.85126 42.9279 8.35196 39.023C8.23271 38.0903 8.23271 36.0107 8.35196 35.0781C8.85126 31.1732 10.5479 27.7231 13.2863 25.0443C16.1823 22.2113 19.7952 20.5883 23.9487 20.2545C24.5442 20.2066 26.5388 20.2723 27.2044 20.3616ZM76.8505 20.4399C80.2107 20.832 83.2859 22.1558 85.8225 24.302C86.8244 25.1496 87.6529 26.0316 88.4581 27.1074C89.0542 27.9037 89.4399 28.5247 89.9256 29.4696C90.9051 31.3755 91.4305 33.1169 91.711 35.387C91.7891 36.0194 91.7892 38.2833 91.711 38.928C91.3487 41.9179 90.375 44.4974 88.7169 46.859C87.6219 48.4187 86.0175 49.9938 84.4299 51.0677C82.1886 52.5838 79.7934 53.4884 77.0334 53.861C76.5643 53.9244 76.0824 53.9437 74.9715 53.9437C73.4188 53.9437 72.9253 53.9008 71.6763 53.6572C69.421 53.2175 67.1485 52.2318 65.18 50.8396C64.0991 50.0751 62.6951 48.7454 61.837 47.6734C58.2977 43.2519 57.2249 37.3463 58.9766 31.9277C59.9131 29.0309 61.7502 26.3075 64.1205 24.302C66.8329 22.0071 70.2114 20.6343 73.798 20.3695C74.5518 20.3139 76.0703 20.3489 76.8505 20.4399ZM23.9724 28.3063C22.5588 28.5021 21.1065 29.068 19.9799 29.862C19.3906 30.2773 18.2923 31.3756 17.877 31.9649C17.2079 32.9142 16.6843 34.1326 16.427 35.3385C16.3099 35.8875 16.3 36.0202 16.3 37.0505C16.3 38.0809 16.3099 38.2136 16.427 38.7626C16.6843 39.9685 17.2079 41.1868 17.877 42.1362C18.2923 42.7255 19.3906 43.8238 19.9799 44.2391C20.9293 44.9082 22.1477 45.4318 23.3535 45.6892C23.9025 45.8063 24.0353 45.8161 25.0656 45.8161C26.0959 45.8161 26.2287 45.8063 26.7777 45.6892C27.9835 45.4318 29.2019 44.9082 30.1512 44.2391C30.4148 44.0534 30.8804 43.6433 31.2694 43.2543C31.6584 42.8653 32.0685 42.3997 32.2542 42.1362C32.9233 41.1868 33.4469 39.9685 33.7042 38.7626C33.8213 38.2136 33.8312 38.0809 33.8312 37.0505C33.8312 36.0202 33.8213 35.8875 33.7042 35.3385C33.4469 34.1326 32.9233 32.9142 32.2542 31.9649C31.8389 31.3756 30.7406 30.2773 30.1512 29.862C29.2072 29.1966 27.978 28.6669 26.802 28.4185C26.3223 28.3172 26.073 28.295 25.2557 28.2806C24.7198 28.2712 24.1423 28.2828 23.9724 28.3063ZM73.7172 28.3285C71.2272 28.683 69.0075 30.0738 67.6102 32.155C65.6076 35.1378 65.596 38.9927 67.5808 41.9744C68.2369 42.96 69.0621 43.7852 70.0477 44.4413C74.4699 47.385 80.4607 45.7824 82.8504 41.0163C83.5052 39.7105 83.7957 38.3529 83.7497 36.8129C83.7149 35.6448 83.5423 34.8002 83.127 33.7658C82.692 32.6826 82.0456 31.7147 81.1765 30.8456C79.859 29.5282 78.3185 28.7237 76.436 28.3701C75.8801 28.2657 74.3253 28.2419 73.7172 28.3285Z" fill="#042437"/>
</svg>
