<?xml version="1.0" encoding="UTF-8"?>
<svg version="1.1" viewBox="0 0 2048 2048" width="512" height="512" xmlns="http://www.w3.org/2000/svg">
<path transform="translate(1436,44)" d="m0 0h19l10 4 8 6 7 8 4 8 2 6v15l-4 11-6 9-7 7-11 9-14 12-11 9-9 8-11 9-14 12-11 9-10 9-14 11-11 10-14 11-11 10-11 9-26 22-11 9-15 13-11 9-14 12-11 9-15 13-11 9-14 12-11 9-14 12-11 9-15 13-11 9-14 12-11 9-14 12-11 9-9 8-11 9-13 11-8 6 851 1 27 2 18 4 17 6 17 8 18 12 11 9 15 15 10 13 9 15 7 14 11 33h1v1099l-2 1-5 19-7 18-10 19-12 16-11 12-7 7-13 10-13 8-15 8-17 6-15 4-21 3-26 1-3 3-65 130-7 11-8 8-10 5-10 2h-1497l-10-3-9-6-7-7-10-18-61-122-2-3-29-1-20-3-18-5-19-8-16-9-16-12-12-11-11-12-11-16-8-14-8-20-6-23-1-4v-1088l5-18 6-18 8-16 7-12 12-16 19-19 15-11 16-9 13-6 15-5 18-4 24-2h674l-7-8-12-14-14-15-7-8-12-14-15-16-7-8-12-14-14-15-7-8-12-14-14-15-7-8-12-14-14-15-7-8-12-14-14-15-7-8-12-14-14-15-7-8-12-14-10-11-6-10-3-8-1-9 3-14 6-10 5-5 7-6 11-4 10-1 12 2 10 5 12 11 9 10 7 8 9 10 7 8 9 10 7 8 11 12 7 8 9 10 7 8 9 10 7 8 10 11 7 8 10 11 7 8 9 10 7 8 11 12 7 8 9 10 7 8 9 10 7 8 18 20 7 8 9 10 7 8 10 11 7 8 11 12 7 8 9 10 7 8 4-2 15-13 11-9 14-12 11-9 14-12 11-9 14-12 26-22 11-9 14-12 26-22 11-9 28-24 10-8 14-12 13-11 14-12 11-9 14-12 11-9 14-12 11-9 15-13 11-9 14-12 13-11 11-9 14-12 13-11 11-9 14-12 13-11 11-9 28-24 11-7zm-1278 520-17 2-12 4-13 7-11 9-9 10-8 13-5 14-2 11-1 21v1028l2 19 4 12 6 12 10 13 10 9 14 8 13 5 11 2h1747l18-4 16-8 15-12 10-13 7-15 3-11 1-7v-1058l-3-15-5-12-5-9-7-9-8-8-14-9-15-6-19-3zm110 1280-1 3 10 19 11 23 10 20 8 14h1437l11-23 10-19 10-21 7-13v-3z"/>
<path transform="translate(199,643)" d="m0 0h1323l16 2 12 6 6 5 7 11 3 8 1 14v525l-1 437-3 10-7 10-9 8-11 4-7 1h-1335l-10-3-8-5-6-5-7-11-3-12v-970l3-10 6-10 9-8 10-5zm42 81v879l1241 1 3-1v-879z"/>
<path transform="translate(1763,643)" d="m0 0h9l18 2 15 4 15 6 14 8 10 8 10 9 9 10 9 14 8 16 5 16 3 19v18l-2 14-4 15-7 17-10 16-11 13-12 11-16 10-14 7-20 6-13 2h-26l-20-4-16-6-18-10-11-9-16-16-10-15-8-16-5-16-3-18v-20l3-18 5-16 8-16 9-14 14-15 12-10 13-8 18-8 15-4zm2 81-14 3-11 7v2l-4 2-5 8-3 8-1 6v8l2 8 6 12 7 7 8 5 10 3h13l10-3 10-6 8-9 4-9 2-11-2-13-4-9-7-9-9-6-9-3z"/>
<path transform="translate(1762,963)" d="m0 0h10l18 2 15 4 15 6 14 8 10 8 10 9 9 10 9 14 8 16 5 16 3 19v18l-2 14-4 15-7 17-10 16-11 13-12 11-16 10-14 7-17 5-8 2-9 1h-24l-17-3-18-6-15-8-14-10-18-18-10-15-8-16-5-16-3-18v-20l3-18 5-16 8-16 9-14 14-15 12-10 13-8 13-6 16-5 11-2zm4 81-12 2-8 4-6 4v2l-4 2-5 8-3 8-1 6v8l2 8 6 12 7 7 8 5 10 3h13l10-3 10-6 8-9 4-9 2-11-2-13-4-9-7-9-9-6-9-3z"/>
<path transform="translate(2047,612)" d="m0 0"/>
</svg>
